<?xml version="1.0" standalone="no"?>
<!DOCTYPE svg PUBLIC "-//W3C//DTD SVG 20010904//EN"
 "http://www.w3.org/TR/2001/REC-SVG-20010904/DTD/svg10.dtd">
<svg version="1.0" xmlns="http://www.w3.org/2000/svg"
 width="100.000000pt" height="100.000000pt" viewBox="0 0 100.000000 100.000000"
 preserveAspectRatio="xMidYMid meet">

<g transform="translate(0.000000,100.000000) scale(0.100000,-0.100000)"
fill="#000000" stroke="none">
<path d="M442 843 c-51 -4 -54 -6 -83 -54 -17 -27 -37 -49 -46 -49 -8 0 -29
16 -47 35 -19 19 -41 35 -51 35 -9 0 -32 -15 -51 -34 -22 -22 -46 -36 -67 -38
l-32 -3 -3 -267 -2 -268 212 -2 c254 -3 546 2 608 11 l45 6 1 273 0 272 -43 0
c-24 0 -43 5 -43 10 0 6 9 10 20 10 11 0 20 5 20 10 0 6 -20 10 -45 10 -25 0
-45 -4 -45 -10 0 -5 7 -10 15 -10 8 0 15 -4 15 -10 0 -5 -16 -10 -36 -10 -31
0 -43 7 -76 45 l-40 45 -86 -2 c-48 -1 -111 -3 -140 -5z m124 -58 c-4 -14 -3
-25 2 -25 5 0 14 11 20 25 6 14 16 25 22 25 8 0 7 -6 0 -20 -7 -13 -7 -20 -1
-20 6 0 15 10 22 21 11 21 12 20 58 -25 l47 -46 77 0 c69 0 77 -2 77 -19 0
-13 -12 -22 -45 -31 -51 -14 -76 -37 -29 -27 16 4 40 10 53 13 19 6 22 4 19
-12 -2 -14 -16 -21 -51 -28 -61 -11 -63 -31 -2 -22 l45 7 0 -83 c0 -46 3 -93
6 -105 6 -20 3 -23 -25 -23 -17 0 -31 -4 -31 -10 0 -5 14 -10 30 -10 23 0 30
-4 30 -20 0 -19 -2 -20 -29 -5 -18 9 -32 11 -36 5 -3 -5 10 -16 30 -24 29 -12
35 -20 35 -45 0 -28 -3 -30 -45 -37 -41 -6 -47 -4 -66 20 -24 31 -36 28 -19
-3 7 -13 7 -21 1 -21 -6 0 -15 9 -21 20 -12 22 -33 18 -24 -4 8 -20 -96 -26
-310 -19 l-186 6 6 26 c5 25 5 25 -10 7 -9 -11 -16 -23 -16 -28 0 -4 -6 -8
-14 -8 -9 0 -13 8 -9 22 l5 23 -20 -22 c-11 -13 -28 -23 -38 -23 -16 0 -16 1
1 20 21 23 13 39 -10 20 -20 -17 -21 8 0 36 19 25 19 40 0 24 -13 -11 -15 9
-15 174 l0 186 124 0 124 0 32 49 c34 53 35 54 154 59 36 2 38 1 32 -23z
m-308 -33 c2 -8 -13 -12 -50 -12 l-53 1 29 25 c25 22 30 23 49 11 12 -7 23
-19 25 -25z"/>
<path d="M475 694 c-76 -39 -125 -118 -125 -202 0 -69 18 -109 68 -154 76 -69
192 -60 285 22 53 47 71 92 65 159 -13 133 -181 233 -293 175z m166 -27 c61
-32 109 -104 109 -164 0 -51 -16 -87 -57 -124 -134 -126 -322 -62 -323 109 0
77 45 152 115 190 34 19 108 14 156 -11z"/>
<path d="M480 638 c-118 -60 -123 -217 -9 -276 84 -44 195 -8 239 78 33 65 23
116 -37 172 -56 53 -122 62 -193 26z m125 -8 c22 -8 26 -15 21 -35 -3 -13 -2
-26 3 -29 5 -3 11 4 14 15 3 12 10 18 16 14 8 -4 8 -12 0 -26 -14 -27 -3 -38
15 -14 13 18 14 18 25 -3 17 -33 13 -76 -12 -113 -25 -37 -90 -79 -123 -79
-17 0 -20 5 -16 25 6 32 -14 33 -22 1 -7 -28 -26 -26 -66 5 l-25 19 25 20 c26
21 12 27 -20 10 -17 -9 -21 -6 -26 15 -29 115 82 216 191 175z"/>
<path d="M550 489 c0 -5 5 -7 10 -4 6 3 10 8 10 11 0 2 -4 4 -10 4 -5 0 -10
-5 -10 -11z"/>
<path d="M135 533 c7 -147 9 -162 21 -150 11 10 -7 297 -18 297 -7 0 -8 -51
-3 -147z"/>
<path d="M230 651 c0 -6 16 -11 35 -11 19 0 35 -4 35 -10 0 -5 -16 -10 -35
-10 -44 0 -46 -20 -2 -21 21 -1 25 -3 12 -6 -34 -8 -41 -23 -12 -23 l27 0 0
-140 c0 -87 4 -140 10 -140 6 0 11 58 12 150 1 83 2 165 2 183 1 31 -1 32 -41
35 -26 2 -43 -1 -43 -7z"/>
</g>
</svg>
