<?xml version="1.0" standalone="no"?>
<!DOCTYPE svg PUBLIC "-//W3C//DTD SVG 20010904//EN"
 "http://www.w3.org/TR/2001/REC-SVG-20010904/DTD/svg10.dtd">
<svg version="1.0" xmlns="http://www.w3.org/2000/svg"
 width="13pt" height="13pt" viewBox="0 0 52.000000 52.000000"
 preserveAspectRatio="xMidYMid meet">

<g transform="translate(0.000000,52.000000) scale(0.100000,-0.100000)"
fill="white" stroke="none">
<path d="M409 465 c-97 -50 -101 -58 -51 -107 50 -50 57 -46 108 54 52 102 47
107 -57 53z m-4 -40 c-41 -35 -55 -42 -55 -26 0 9 78 61 90 61 3 0 -13 -16
-35 -35z"/>
<path d="M162 307 c-40 -41 -75 -82 -76 -93 -1 -10 -17 -26 -35 -35 l-33 -15
72 -75 c40 -41 74 -69 76 -64 15 38 32 59 48 61 11 1 52 36 93 76 63 63 73 77
73 108 0 50 -60 110 -111 110 -30 0 -45 -10 -107 -73z m126 22 c1 -8 -29 -45
-67 -83 -61 -61 -72 -68 -86 -56 -14 12 -8 21 57 87 70 71 90 82 96 52z m-191
-205 c-9 -10 -38 16 -31 28 4 6 13 4 22 -6 9 -8 13 -19 9 -22z"/>
</g>
</svg>
